<?xml version="1.0" encoding="utf-8"?>
<!-- Generator: Adobe Illustrator 22.1.0, SVG Export Plug-In . SVG Version: 6.00 Build 0)  -->
<svg version="1.1" id="White" xmlns="http://www.w3.org/2000/svg" xmlns:xlink="http://www.w3.org/1999/xlink" x="0px" y="0px"
	 viewBox="0.8 0.1 37.1 37.1" style="enable-background:new 0.8 0.1 37.1 37.1;" xml:space="preserve">
<style type="text/css">
	.st0{fill-rule:evenodd;clip-rule:evenodd;fill:#FFFFFF;}
</style>
<g>
</g>
<g>
	<path class="st0" d="M19.4,0.1C9.3,0.1,0.9,8.3,0.8,18.5C0.7,28.7,8.9,37.1,19.1,37.3c10.4,0.2,18.7-8.1,18.9-18.1
		C38.2,8.5,29.5,0.1,19.4,0.1z M23.8,29c-1.7,0-3.4,0-5.1,0c-3.4-0.1-6.5-2.8-7-6.2c-0.1-0.5-0.1-1-0.1-1.5c0-1.5,0-3.1,0-4.6
		c0-1.8,0-3.6,0-5.4c0-0.9,0.4-1.3,1.3-1.3c0,0,0.1,0,0.1,0c0.9,0,1.3,0.4,1.3,1.3c0,3.4,0,6.7,0,10.1c0,2.9,2,4.9,4.9,5
		c1.5,0,3,0,4.6,0c0.8,0,1.3,0.4,1.3,1.3C25,28.5,24.6,29,23.8,29z M27.7,12.8c-2,0-3.7,0.7-5.1,2.1c-1.5,1.4-2.2,3.2-2.3,5.3
		c0,0.5,0,1,0,1.6c0,0.7-0.5,1.2-1.2,1.2c-0.2,0-0.3,0-0.5,0c-0.6,0-1.1-0.5-1.1-1.1c0-0.4,0-0.8,0-1.1c-0.1-2.8,0.8-5.2,2.6-7.3
		c2-2.2,4.6-3.3,7.6-3.3c0.7,0,1.1,0.4,1.1,1.1c0,0.1,0,0.2,0,0.4C29,12.4,28.6,12.8,27.7,12.8z"/>
</g>
</svg>
