<?xml version="1.0" encoding="UTF-8"?>
<svg width="960px" height="960px" viewBox="0 0 960 960" version="1.1" xmlns="http://www.w3.org/2000/svg" xmlns:xlink="http://www.w3.org/1999/xlink">
    <!-- Generator: Sketch 60.1 (88133) - https://sketch.com -->
    <title>lukeroberts</title>
    <desc>Created with Sketch.</desc>
    <g id="lukeroberts" stroke="none" stroke-width="1" fill="none" fill-rule="evenodd">
        <path d="M478.5,-40 L478.500273,311.000127 L480.003606,311.004704 L480.003606,311.004704 L481.56674,311 L481.56674,311 L483,311 L483.001231,311.023119 C484.512582,311.03558 486.012558,311.05281 487.501406,311.074856 L487.5,-40 L507.5,-40 L507.501405,311.696139 C541.141201,313.33345 568.943395,317.917931 594.407997,326.130247 C610.220607,331.229802 629.046382,340.964342 650.002473,354.045984 L652.037102,355.322355 L653.021505,355.944397 C666.459417,364.456148 679.873396,373.782753 690.176428,381.472881 L691.698164,382.61382 L694.262348,384.551096 C703.284149,391.29745 712.79835,397.074856 721.999226,401.714079 L723.29434,402.360348 C725.856198,403.625293 728.240689,404.722348 730.319301,405.609371 L731.332522,406.035185 L731.614497,406.151183 L732.452,406.487 L738.039613,406.980217 L741.862569,407.325822 C802.799921,412.890198 852.679276,420.115798 888.539358,428.32432 L890.762332,428.838626 L891.768041,429.07498 L893.755812,429.549142 C910.846422,433.666967 924.380106,438.003866 934.21803,442.578199 C940.238289,445.377435 945.14369,448.370113 949.031844,451.849737 C954.966324,457.16068 958.848545,463.814667 959,472.011896 L959,472.495867 L959,488.865942 L959,489.376775 C958.923932,492.09887 958.299168,494.780017 957.155484,497.255126 C914.412101,589.758376 757.770761,633.128842 486.712217,633.987001 L481.539,634 L481.539869,634 L480.06,634 L478.463299,634 L478.463,634 L473.308304,633.986999 C202.819839,633.128701 46.4920784,589.75123 3.83760551,497.240154 C2.69815366,494.768856 2.07577723,492.092683 2,489.375795 L2,488.865942 L2,472.495867 C2,464.087567 5.90709039,457.279299 11.9449595,451.864109 C15.8278521,448.381655 20.7267449,445.386465 26.7383364,442.585196 C37.1262379,437.744663 51.6393067,433.170612 70.1140348,428.840819 L72.3780998,428.315984 L74.6104818,427.809442 C111.363306,419.55661 162.334075,412.322261 224.474976,406.805913 L228.082,406.488 L228.635778,406.267248 L229.18729,406.041042 L230.197747,405.615468 C232.616222,404.58117 235.450192,403.261021 238.496023,401.721935 C247.674254,397.084091 257.165316,391.308232 266.165373,384.563537 L268.723852,382.626377 L270.242421,381.485343 C280.523994,373.794583 293.909872,364.467328 307.319788,355.954886 L308.30214,355.332794 C330.031875,341.60521 349.526702,331.400369 365.820788,326.13414 C392.721041,317.440009 422.233918,312.810913 458.5,311.439461 L458.5,-40 L478.5,-40 Z M477.49378,474.003932 L483,474 C269.840949,474 128.955958,486.552091 62.3927949,510.640483 C119.011498,564.167953 256.234451,593.312157 473.766511,593.987974 L480.003,593.997 L486.25402,593.987972 C702.057466,593.318903 839.010727,564.752006 896.802659,512.254449 C832.626806,487.362664 692.147616,474.263428 477.49378,474.003932 L477.49378,474.003932 Z M485.658902,438.020253 L477.268244,438.00326 C381.570564,438.109724 300.631343,440.823591 234.638607,446.049118 C234.380183,446.086048 234.134333,446.114563 233.900137,446.134705 L228.021588,446.648382 L224.026258,447.00688 C197.500825,449.412603 173.182086,452.131972 151.352684,455.095162 L148.31008,455.544625 C98.8991358,462.932569 63.4505299,472.609208 42.1336412,484.488646 L42.3290986,484.855719 C44.1159888,488.210879 46.1487684,491.493583 48.4273868,494.703142 C115.668924,467.707927 255.827405,454.485491 470.95867,454.013131 L470.966416,454 L476.99,454.004 L483,454 L483.008292,454.013075 C703.722536,454.495596 845.695959,468.33963 911.136458,496.637011 C913.469091,493.527804 915.566214,490.345572 917.427318,487.093802 C867.424067,455.532458 722.52834,438.681661 485.658902,438.020253 L485.658902,438.020253 Z M640.941602,395.672211 L640.962096,395.854306 C641.906668,404.842938 639.620518,413.329026 633.92466,420.953744 L639.84546,421.19973 C653.594859,421.785432 666.883857,422.453246 679.716931,423.202825 C676.475839,421.047462 673.290136,418.810762 670.231289,416.526696 L668.92833,415.54501 L667.248293,414.273376 C658.982775,408.044672 650.028295,401.698904 640.941602,395.672211 Z M599.191993,371.271519 L599.231164,371.838939 C599.531999,376.75504 599.038979,381.695723 597.638652,386.549992 C593.941703,399.365559 584.516049,410.24175 569.233412,418.983505 C581.166051,419.235208 592.811828,419.538081 604.176999,419.890517 C604.506007,419.643317 604.862744,419.413827 605.238184,419.204937 C621.820864,409.978541 624.459103,400.862232 617.761287,387.836689 L617.366102,387.082232 C615.647202,383.859922 613.55324,380.683268 610.972962,377.388898 C607.371306,375.407894 603.853784,373.565217 600.459146,371.891278 L599.191993,371.271519 Z M556.698242,357.603148 L556.612869,358.240512 C554.178402,375.684771 543.50141,390.765421 525.092625,402.8533 C516.491659,408.501008 506.142786,413.560596 494.035316,418.04983 L500.546718,418.081624 C502.709474,418.093695 504.864485,418.107212 507.011649,418.122091 L508.900597,417.790925 C531.930801,413.675344 549.196381,407.816461 560.995271,400.617041 C570.900424,394.573139 576.41829,387.953313 578.42224,381.006571 C580.073753,375.281559 579.266294,368.826093 576.532008,362.477362 C570.707357,360.769496 564.687907,359.265093 558.41528,357.955489 L556.698242,357.603148 Z M384.843581,362.143637 L384.121868,362.352055 C382.099123,362.941966 380.10005,363.556368 378.122208,364.195604 C355.79025,371.413267 320.250994,393.774109 292.63202,414.695097 C309.072394,408.766887 324.261244,400.780507 342.321096,389.430233 L346.640024,386.678775 L364.040994,375.475698 C366.952394,373.608166 369.60956,371.910755 371.528082,370.699854 L374.792438,368.648135 C378.030859,366.601295 381.36436,364.442743 384.843581,362.143637 Z M519.553685,352.546395 L519.14218,353.538008 C509.954573,374.969367 488.278062,393.509309 455.436744,408.645629 L457.63314,408.120271 C481.994987,402.210444 500.842954,394.850202 514.114981,386.135306 C528.190686,376.892685 535.608755,366.529066 536.926899,354.357413 C531.353113,353.633288 525.572293,353.031278 519.553685,352.546395 Z M479.979,351.006 L479.313227,351.010405 C463.442611,371.620959 439.671323,389.771561 408.615772,404.909122 C455.246932,390.633351 485.371949,372.087043 497.738942,351.33119 C492.567432,351.157219 487.230841,351.053163 481.712528,351.015784 L479.979,351.006 Z M451.885414,351.784953 L450.849133,351.841768 C444.762365,352.186014 438.914696,352.638006 433.278152,353.201691 L412.048575,367.857179 C407.431805,371.033832 403.221262,373.917063 400.575479,375.695024 L400.325392,375.862915 C394.697362,379.637223 389.444948,383.062835 384.381991,386.245132 L381.307795,388.178975 L371.25592,394.611888 C364.958149,398.661685 358.348482,402.93191 355.812405,404.558402 C398.204274,390.676915 430.511141,372.677783 451.885414,351.784953 Z" id="Shape" fill="#000000" fill-rule="nonzero"></path>
    </g>
</svg>